# xmcd
#
# Track frame offsets:
#	150
#	13645
#	24540
#	34960
#	51690
#	68215
#	80982
#	87755
#	100475
#	113197
#	125255
#	139337
#	150397
#	162120
#	174552
#	184465
#	195997
#	209690
#	224880
#	235625
#
# Disc length: 3337
#
# Revision: 2
# Processed by: cddbd v1.5.1PL0 Copyright (c) Steve Scherf et al.
# Submitted via: dBpowerAMP V4.0
# Normalized: r0:TDELIM( - );r1:TSWAP
#
DISCID=290d0714
DTITLE=Various Artist - Treasury of Country Inspirational Favorites
DYEAR=1900
DGENRE=
TTITLE0=Leroy Van Dyke - The Church In The Wildwood
TTITLE1=Webb Pierce - Whispering Hope
TTITLE2=Bill Anderson - Blessed Assurance
TTITLE3=Eddy Arnold - Love Lifted Me
TTITLE4=Jeannie C. Riley - Farther Along
TTITLE5=Jim Nabors - Onward, Christian Soldiers
TTITLE6=The Statesmen Quartet With Hovie Lister - Brighten The Corner Where You Are
TTITLE7=The Louvin Brothers - Nearer, My God, To Thee
TTITLE8=The Old Village Choir - Can The Circle Be Unbroken
TTITLE9=The Fireside Family Singers - The Bible Tells Me So
TTITLE10=Jim Nabors - Sweet Hour Of Prayer
TTITLE11=The Chuck Wagon Gang - Softly And Tenderly
TTITLE12=Jim Reeves - An Evening Prayer
TTITLE13=Norma Zimmer with Jim Roberts - Abide With Me
TTITLE14=The Statesmen Quartet - Count Your Blessings
TTITLE15=George Beverly Shea with Orchestra and Chorus conduced by Charles Green - Bless This House
TTITLE16=Hank Williams - Beyond The Sunset
TTITLE17=Jim Nabors - Now The Day Is Over
TTITLE18=The Blackwood Brothers Quartet - Give Us This Day
TTITLE19=George Beverly Shea With Orchestra arranged and conducted by Nathan Scott - Day Is Dying In The West
EXTD=It's a 4 cd album and you accepted the first cd of it.
EXTT0=
EXTT1=
EXTT2=
EXTT3=
EXTT4=
EXTT5=
EXTT6=
EXTT7=
EXTT8=
EXTT9=
EXTT10=
EXTT11=
EXTT12=
EXTT13=
EXTT14=
EXTT15=
EXTT16=
EXTT17=
EXTT18=
EXTT19=
PLAYORDER=
